<svg width="38" height="38" viewBox="0 0 38 38" fill="none" xmlns="http://www.w3.org/2000/svg">
    <path d="M18.3214 27.1429C23.1934 27.1429 27.1429 23.1934 27.1429 18.3214C27.1429 13.4495 23.1934 9.5 18.3214 9.5C13.4495 9.5 9.5 13.4495 9.5 18.3214C9.5 23.1934 13.4495 27.1429 18.3214 27.1429Z" fill="url(#paint0_linear_733_18698)"/>
    <path d="M29.3532 19.3492C29.8244 19.3492 30.2064 18.9672 30.2064 18.496C30.2064 18.0248 29.8244 17.6428 29.3532 17.6428C28.882 17.6428 28.5 18.0248 28.5 18.496C28.5 18.9672 28.882 19.3492 29.3532 19.3492Z" fill="#FDCA4F"/>
    <path d="M18.496 30.2064C18.9673 30.2064 19.3492 29.8244 19.3492 29.3532C19.3492 28.882 18.9673 28.5 18.496 28.5C18.0248 28.5 17.6429 28.882 17.6429 29.3532C17.6429 29.8244 18.0248 30.2064 18.496 30.2064Z" fill="#FDCA4F"/>
    <path d="M18.496 8.49215C18.9673 8.49215 19.3492 8.11016 19.3492 7.63896C19.3492 7.16775 18.9673 6.78577 18.496 6.78577C18.0248 6.78577 17.6429 7.16775 17.6429 7.63896C17.6429 8.11016 18.0248 8.49215 18.496 8.49215Z" fill="#FDCA4F"/>
    <path d="M7.6389 19.3492C8.1101 19.3492 8.49209 18.9672 8.49209 18.496C8.49209 18.0248 8.1101 17.6428 7.6389 17.6428C7.16769 17.6428 6.78571 18.0248 6.78571 18.496C6.78571 18.9672 7.16769 19.3492 7.6389 19.3492Z" fill="#FDCA4F"/>
    <path d="M10.3532 12.5636C10.8244 12.5636 11.2064 12.1816 11.2064 11.7104C11.2064 11.2392 10.8244 10.8572 10.3532 10.8572C9.88199 10.8572 9.5 11.2392 9.5 11.7104C9.5 12.1816 9.88199 12.5636 10.3532 12.5636Z" fill="#FDCA4F"/>
    <path d="M26.6389 12.5636C27.1101 12.5636 27.4921 12.1816 27.4921 11.7104C27.4921 11.2392 27.1101 10.8572 26.6389 10.8572C26.1677 10.8572 25.7857 11.2392 25.7857 11.7104C25.7857 12.1816 26.1677 12.5636 26.6389 12.5636Z" fill="#FDCA4F"/>
    <path d="M26.6389 26.135C27.1101 26.135 27.4921 25.753 27.4921 25.2818C27.4921 24.8106 27.1101 24.4286 26.6389 24.4286C26.1677 24.4286 25.7857 24.8106 25.7857 25.2818C25.7857 25.753 26.1677 26.135 26.6389 26.135Z" fill="#FDCA4F"/>
    <path d="M10.3532 26.135C10.8244 26.135 11.2064 25.753 11.2064 25.2818C11.2064 24.8106 10.8244 24.4286 10.3532 24.4286C9.88199 24.4286 9.5 24.8106 9.5 25.2818C9.5 25.753 9.88199 26.135 10.3532 26.135Z" fill="#FDCA4F"/>
    <defs>
        <linearGradient id="paint0_linear_733_18698" x1="12.0831" y1="24.5555" x2="24.5555" y2="12.0831" gradientUnits="userSpaceOnUse">
            <stop stop-color="#EBB63A"/>
            <stop offset="1" stop-color="#F3CC3B"/>
        </linearGradient>
    </defs>
</svg>
