<svg width="38" height="41" viewBox="0 0 38 41" fill="none" xmlns="http://www.w3.org/2000/svg">
    <path opacity="0.6" d="M23.6792 24.8432C26.192 24.8432 28.2261 22.8091 28.2261 20.2963C28.2261 17.7836 26.192 15.7494 23.6792 15.7494C23.6636 15.7494 23.648 15.7494 23.6324 15.7494C23.2318 12.1338 20.1572 9.31409 16.4219 9.31409C13.4721 9.31409 10.9386 11.0725 9.80446 13.5956C9.76805 13.5956 9.73163 13.5904 9.69521 13.5904C6.58939 13.5904 4.07144 16.1084 4.07144 19.2142C4.07144 22.32 6.58939 24.838 9.69521 24.838" fill="#57AAFF"/>
    <path fill-rule="evenodd" clip-rule="evenodd" d="M23.6324 15.7494C23.355 13.2459 21.7956 11.124 19.6226 10.0555C20.4853 8.12839 22.4197 6.78577 24.6678 6.78577C27.7191 6.78577 30.1927 9.25936 30.1927 12.3107C30.1927 13.9313 29.4949 15.3889 28.3835 16.3996C27.5607 15.5857 26.43 15.0836 25.1827 15.0836C24.6187 15.0836 24.0789 15.1858 23.5807 15.3729C23.6011 15.4974 23.6184 15.6229 23.6325 15.7494H23.6324ZM23.9317 15.7563C25.1851 15.8248 26.3028 16.4 27.0835 17.2809C27.0835 17.2809 27.0835 17.2809 27.0836 17.2809C26.3028 16.4 25.1852 15.8248 23.9317 15.7563Z" fill="url(#paint0_linear_733_18744)"/>
    <path opacity="0.6" fill-rule="evenodd" clip-rule="evenodd" d="M23.8581 24.8397C26.2878 24.7459 28.2262 22.7491 28.2262 20.2962C28.2262 17.7835 26.1921 15.7494 23.6793 15.7494H23.6325C23.6185 15.6228 23.6012 15.4973 23.5807 15.3728C24.0789 15.1858 24.6188 15.0835 25.1827 15.0835C27.5238 15.0835 29.4539 16.8523 29.7088 19.1309H29.74C31.3163 19.1309 32.5961 20.4107 32.5961 21.9871C32.5961 23.5634 31.3163 24.8432 29.74 24.8432L23.8581 24.8397Z" fill="#5686DF"/>
    <path d="M30.7103 8.49215C31.1815 8.49215 31.5635 8.11016 31.5635 7.63896C31.5635 7.16775 31.1815 6.78577 30.7103 6.78577C30.2391 6.78577 29.8571 7.16775 29.8571 7.63896C29.8571 8.11016 30.2391 8.49215 30.7103 8.49215Z" fill="#FDCA4F"/>
    <path d="M32.0675 12.5634C32.5387 12.5634 32.9207 12.1815 32.9207 11.7102C32.9207 11.239 32.5387 10.8571 32.0675 10.8571C31.5963 10.8571 31.2143 11.239 31.2143 11.7102C31.2143 12.1815 31.5963 12.5634 32.0675 12.5634Z" fill="#FDCA4F"/>
    <path d="M19.8532 8.49215C20.3244 8.49215 20.7064 8.11016 20.7064 7.63896C20.7064 7.16775 20.3244 6.78577 19.8532 6.78577C19.382 6.78577 19 7.16775 19 7.63896C19 8.11016 19.382 8.49215 19.8532 8.49215Z" fill="#FDCA4F"/>
    <path d="M30.7103 16.635C31.1815 16.635 31.5635 16.253 31.5635 15.7818C31.5635 15.3106 31.1815 14.9286 30.7103 14.9286C30.2391 14.9286 29.8571 15.3106 29.8571 15.7818C29.8571 16.253 30.2391 16.635 30.7103 16.635Z" fill="#FDCA4F"/>
    <path d="M25.2818 5.77779C25.753 5.77779 26.1349 5.39581 26.1349 4.9246C26.1349 4.4534 25.753 4.07141 25.2818 4.07141C24.8105 4.07141 24.4286 4.4534 24.4286 4.9246C24.4286 5.39581 24.8105 5.77779 25.2818 5.77779Z" fill="#FDCA4F"/>
    <defs>
        <linearGradient id="paint0_linear_733_18744" x1="21.1701" y1="15.7417" x2="28.5893" y2="8.26951" gradientUnits="userSpaceOnUse">
            <stop stop-color="#EBB63A"/>
            <stop offset="1" stop-color="#F3CC3B"/>
        </linearGradient>
    </defs>
</svg>
