<svg width="38" height="38" viewBox="0 0 38 38" fill="none" xmlns="http://www.w3.org/2000/svg">
    <path opacity="0.6" d="M23.9711 22.1712C26.4839 22.1712 28.518 20.1371 28.518 17.6243C28.518 15.1116 26.4839 13.0774 23.9711 13.0774C23.9555 13.0774 23.9399 13.0774 23.9243 13.0774C23.5237 9.46178 20.4491 6.64209 16.7138 6.64209C13.7641 6.64209 11.2305 8.40049 10.0964 10.9236C10.06 10.9236 10.0236 10.9184 9.98715 10.9184C6.88132 10.9184 4.36337 13.4364 4.36337 16.5422C4.36337 19.648 6.88132 22.166 9.98715 22.166" fill="#57AAFF"/>
    <path fill-rule="evenodd" clip-rule="evenodd" d="M23.8725 12.7008C23.4877 10.3621 21.9777 8.398 19.9145 7.38352C20.7772 5.4564 22.7117 4.11377 24.9597 4.11377C28.011 4.11377 30.4846 6.58736 30.4846 9.6387C30.4846 11.2593 29.7869 12.7169 28.6755 13.7275C27.8527 12.9136 26.722 12.4115 25.4747 12.4115C24.9107 12.4115 24.3708 12.5138 23.8725 12.7008Z" fill="#FDCA4F"/>
    <path opacity="0.6" fill-rule="evenodd" clip-rule="evenodd" d="M24.1531 22.1676C26.5814 22.0722 28.5181 20.0761 28.5181 17.6242C28.5181 15.1115 26.484 13.0774 23.9713 13.0774H23.9244C23.9104 12.9508 23.8931 12.8252 23.8726 12.7007C24.3709 12.5136 24.9107 12.4114 25.4746 12.4114C27.8157 12.4114 29.7458 14.1802 30.0007 16.4588H30.0319C31.6083 16.4588 32.888 17.7386 32.888 19.3149C32.888 20.8913 31.6083 22.171 30.0319 22.171L24.1531 22.1676Z" fill="#5686DF"/>
    <path d="M11.6676 25.6723C12.1388 25.6723 12.5208 25.2903 12.5208 24.8191C12.5208 24.3479 12.1388 23.9659 11.6676 23.9659C11.1964 23.9659 10.8144 24.3479 10.8144 24.8191C10.8144 25.2903 11.1964 25.6723 11.6676 25.6723Z" fill="#57AAFF"/>
    <path d="M15.9283 25.6723C16.3995 25.6723 16.7815 25.2903 16.7815 24.8191C16.7815 24.3479 16.3995 23.9659 15.9283 23.9659C15.4571 23.9659 15.0751 24.3479 15.0751 24.8191C15.0751 25.2903 15.4571 25.6723 15.9283 25.6723Z" fill="#57AAFF"/>
    <path d="M20.1942 25.6723C20.6654 25.6723 21.0474 25.2903 21.0474 24.8191C21.0474 24.3479 20.6654 23.9659 20.1942 23.9659C19.723 23.9659 19.341 24.3479 19.341 24.8191C19.341 25.2903 19.723 25.6723 20.1942 25.6723Z" fill="#57AAFF"/>
    <path d="M24.4552 25.6723C24.9264 25.6723 25.3084 25.2903 25.3084 24.8191C25.3084 24.3479 24.9264 23.9659 24.4552 23.9659C23.984 23.9659 23.6021 24.3479 23.6021 24.8191C23.6021 25.2903 23.984 25.6723 24.4552 25.6723Z" fill="#57AAFF"/>
    <path d="M19.8533 5.77779C20.3245 5.77779 20.7065 5.39581 20.7065 4.9246C20.7065 4.4534 20.3245 4.07141 19.8533 4.07141C19.3821 4.07141 19.0001 4.4534 19.0001 4.9246C19.0001 5.39581 19.3821 5.77779 19.8533 5.77779Z" fill="#FDCA4F"/>
    <path d="M11.6676 32.6124C12.1388 32.6124 12.5208 32.2304 12.5208 31.7592C12.5208 31.288 12.1388 30.906 11.6676 30.906C11.1964 30.906 10.8144 31.288 10.8144 31.7592C10.8144 32.2304 11.1964 32.6124 11.6676 32.6124Z" fill="#57AAFF"/>
    <path d="M15.9283 32.6124C16.3995 32.6124 16.7815 32.2304 16.7815 31.7592C16.7815 31.288 16.3995 30.906 15.9283 30.906C15.4571 30.906 15.0751 31.288 15.0751 31.7592C15.0751 32.2304 15.4571 32.6124 15.9283 32.6124Z" fill="#57AAFF"/>
    <path d="M20.1942 32.6124C20.6654 32.6124 21.0474 32.2304 21.0474 31.7592C21.0474 31.288 20.6654 30.906 20.1942 30.906C19.723 30.906 19.341 31.288 19.341 31.7592C19.341 32.2304 19.723 32.6124 20.1942 32.6124Z" fill="#57AAFF"/>
    <path d="M24.4551 32.6124C24.9263 32.6124 25.3083 32.2304 25.3083 31.7592C25.3083 31.288 24.9263 30.906 24.4551 30.906C23.9839 30.906 23.6019 31.288 23.6019 31.7592C23.6019 32.2304 23.9839 32.6124 24.4551 32.6124Z" fill="#57AAFF"/>
    <path d="M9.53462 29.2048C10.0058 29.2048 10.3878 28.8228 10.3878 28.3516C10.3878 27.8804 10.0058 27.4984 9.53462 27.4984C9.06341 27.4984 8.68143 27.8804 8.68143 28.3516C8.68143 28.8228 9.06341 29.2048 9.53462 29.2048Z" fill="#57AAFF"/>
    <path d="M13.8005 29.2048C14.2718 29.2048 14.6537 28.8228 14.6537 28.3516C14.6537 27.8804 14.2718 27.4984 13.8005 27.4984C13.3293 27.4984 12.9474 27.8804 12.9474 28.3516C12.9474 28.8228 13.3293 29.2048 13.8005 29.2048Z" fill="#57AAFF"/>
    <path d="M18.0614 29.2048C18.5326 29.2048 18.9146 28.8228 18.9146 28.3516C18.9146 27.8804 18.5326 27.4984 18.0614 27.4984C17.5902 27.4984 17.2082 27.8804 17.2082 28.3516C17.2082 28.8228 17.5902 29.2048 18.0614 29.2048Z" fill="#57AAFF"/>
    <path d="M22.322 29.2048C22.7932 29.2048 23.1752 28.8228 23.1752 28.3516C23.1752 27.8804 22.7932 27.4984 22.322 27.4984C21.8508 27.4984 21.4688 27.8804 21.4688 28.3516C21.4688 28.8228 21.8508 29.2048 22.322 29.2048Z" fill="#57AAFF"/>
    <path d="M30.7103 5.77791C31.1815 5.77791 31.5635 5.39593 31.5635 4.92472C31.5635 4.45352 31.1815 4.07153 30.7103 4.07153C30.2391 4.07153 29.8571 4.45352 29.8571 4.92472C29.8571 5.39593 30.2391 5.77791 30.7103 5.77791Z" fill="#FDCA4F"/>
    <path d="M32.0675 9.8492C32.5387 9.8492 32.9206 9.46722 32.9206 8.99601C32.9206 8.52481 32.5387 8.14282 32.0675 8.14282C31.5963 8.14282 31.2143 8.52481 31.2143 8.99601C31.2143 9.46722 31.5963 9.8492 32.0675 9.8492Z" fill="#FDCA4F"/>
    <path d="M30.7103 13.9207C31.1815 13.9207 31.5635 13.5388 31.5635 13.0675C31.5635 12.5963 31.1815 12.2144 30.7103 12.2144C30.2391 12.2144 29.8571 12.5963 29.8571 13.0675C29.8571 13.5388 30.2391 13.9207 30.7103 13.9207Z" fill="#FDCA4F"/>
    <path d="M25.2818 3.06356C25.753 3.06356 26.1349 2.68157 26.1349 2.21037C26.1349 1.73917 25.753 1.35718 25.2818 1.35718C24.8105 1.35718 24.4286 1.73917 24.4286 2.21037C24.4286 2.68157 24.8105 3.06356 25.2818 3.06356Z" fill="#FDCA4F"/>
</svg>
