<svg width="38" height="38" viewBox="0 0 38 38" fill="none" xmlns="http://www.w3.org/2000/svg">
    <path opacity="0.6" d="M25.732 23.553C28.7737 23.553 31.2361 21.0907 31.2361 18.0489C31.2361 15.0072 28.7737 12.5448 25.732 12.5448C25.7131 12.5448 25.6942 12.5448 25.6753 12.5448C25.1904 8.16795 21.4685 4.75464 16.9468 4.75464C13.376 4.75464 10.3091 6.88323 8.93622 9.93758C8.89214 9.93758 8.84805 9.93128 8.80397 9.93128C5.04429 9.93128 1.99625 12.9793 1.99625 16.739C1.99625 20.4987 5.04429 23.5467 8.80397 23.5467" fill="#57AAFF"/>
    <path opacity="0.6" fill-rule="evenodd" clip-rule="evenodd" d="M25.9499 23.5488C28.8905 23.4345 31.2362 21.0177 31.2362 18.0489C31.2362 15.0071 28.7738 12.5448 25.7321 12.5448H25.6754C25.6584 12.3916 25.6375 12.2396 25.6127 12.0889C26.2158 11.8624 26.8693 11.7386 27.5519 11.7386C30.3859 11.7386 32.7223 13.8798 33.0309 16.6382H33.0687C34.9768 16.6382 36.5261 18.1874 36.5261 20.0956C36.5261 22.0038 34.9768 23.553 33.0687 23.553L25.9499 23.5488Z" fill="#5686DF"/>
    <path d="M10.8382 27.7914C11.4086 27.7914 11.871 27.329 11.871 26.7586C11.871 26.1882 11.4086 25.7258 10.8382 25.7258C10.2678 25.7258 9.80542 26.1882 9.80542 26.7586C9.80542 27.329 10.2678 27.7914 10.8382 27.7914Z" fill="#57AAFF"/>
    <path d="M15.9959 27.7914C16.5663 27.7914 17.0287 27.329 17.0287 26.7586C17.0287 26.1882 16.5663 25.7258 15.9959 25.7258C15.4254 25.7258 14.963 26.1882 14.963 26.7586C14.963 27.329 15.4254 27.7914 15.9959 27.7914Z" fill="#57AAFF"/>
    <path d="M21.1599 27.7914C21.7303 27.7914 22.1927 27.329 22.1927 26.7586C22.1927 26.1882 21.7303 25.7258 21.1599 25.7258C20.5895 25.7258 20.1271 26.1882 20.1271 26.7586C20.1271 27.329 20.5895 27.7914 21.1599 27.7914Z" fill="#57AAFF"/>
    <path d="M26.3179 27.7914C26.8883 27.7914 27.3507 27.329 27.3507 26.7586C27.3507 26.1882 26.8883 25.7258 26.3179 25.7258C25.7475 25.7258 25.2851 26.1882 25.2851 26.7586C25.2851 27.329 25.7475 27.7914 26.3179 27.7914Z" fill="#57AAFF"/>
    <path d="M10.8382 36.1925C11.4086 36.1925 11.871 35.73 11.871 35.1596C11.871 34.5892 11.4086 34.1268 10.8382 34.1268C10.2678 34.1268 9.80542 34.5892 9.80542 35.1596C9.80542 35.73 10.2678 36.1925 10.8382 36.1925Z" fill="#57AAFF"/>
    <path d="M15.9959 36.1925C16.5663 36.1925 17.0287 35.73 17.0287 35.1596C17.0287 34.5892 16.5663 34.1268 15.9959 34.1268C15.4254 34.1268 14.963 34.5892 14.963 35.1596C14.963 35.73 15.4254 36.1925 15.9959 36.1925Z" fill="#57AAFF"/>
    <path d="M21.1599 36.1925C21.7303 36.1925 22.1927 35.73 22.1927 35.1596C22.1927 34.5892 21.7303 34.1268 21.1599 34.1268C20.5895 34.1268 20.1271 34.5892 20.1271 35.1596C20.1271 35.73 20.5895 36.1925 21.1599 36.1925Z" fill="#57AAFF"/>
    <path d="M26.3178 36.1925C26.8882 36.1925 27.3506 35.73 27.3506 35.1596C27.3506 34.5892 26.8882 34.1268 26.3178 34.1268C25.7474 34.1268 25.285 34.5892 25.285 35.1596C25.285 35.73 25.7474 36.1925 26.3178 36.1925Z" fill="#57AAFF"/>
    <path d="M8.25611 32.0676C8.82651 32.0676 9.28892 31.6052 9.28892 31.0348C9.28892 30.4644 8.82651 30.002 8.25611 30.002C7.6857 30.002 7.2233 30.4644 7.2233 31.0348C7.2233 31.6052 7.6857 32.0676 8.25611 32.0676Z" fill="#57AAFF"/>
    <path d="M13.4201 32.0676C13.9905 32.0676 14.453 31.6052 14.453 31.0348C14.453 30.4644 13.9905 30.002 13.4201 30.002C12.8497 30.002 12.3873 30.4644 12.3873 31.0348C12.3873 31.6052 12.8497 32.0676 13.4201 32.0676Z" fill="#57AAFF"/>
    <path d="M18.578 32.0676C19.1484 32.0676 19.6108 31.6052 19.6108 31.0348C19.6108 30.4644 19.1484 30.002 18.578 30.002C18.0076 30.002 17.5452 30.4644 17.5452 31.0348C17.5452 31.6052 18.0076 32.0676 18.578 32.0676Z" fill="#57AAFF"/>
    <path d="M23.7356 32.0676C24.306 32.0676 24.7684 31.6052 24.7684 31.0348C24.7684 30.4644 24.306 30.002 23.7356 30.002C23.1652 30.002 22.7028 30.4644 22.7028 31.0348C22.7028 31.6052 23.1652 32.0676 23.7356 32.0676Z" fill="#57AAFF"/>
</svg>
